<svg xmlns="http://www.w3.org/2000/svg" viewBox="0 0 500 72" role="img" aria-labelledby="title desc">
  <title id="title">CompanyChat</title>
  <desc id="desc">Versao monocromatica branca do wordmark CompanyChat ExtraBold.</desc>
  <g transform="translate(8 59) scale(0.0345 -0.0345)">
    <path d="M758 -30Q542 -30 385.5 64.0Q229 158 144.5 327.0Q60 496 60 720Q60 944 144.5 1113.0Q229 1282 385.5 1376.0Q542 1470 758 1470Q1006 1470 1174.5 1347.0Q1343 1224 1412 1014L1138 938Q1098 1069 1003.0 1141.5Q908 1214 758 1214Q621 1214 529.5 1153.0Q438 1092 392.0 981.0Q346 870 346 720Q346 570 392.0 459.0Q438 348 529.5 287.0Q621 226 758 226Q908 226 1003.0 299.0Q1098 372 1138 502L1412 426Q1343 216 1174.5 93.0Q1006 -30 758 -30ZM2100 -30Q1937 -30 1814.0 43.0Q1691 116 1622.5 244.5Q1554 373 1554 540Q1554 709 1624.0 837.5Q1694 966 1817.0 1038.0Q1940 1110 2100 1110Q2263 1110 2386.5 1037.0Q2510 964 2579.0 835.5Q2648 707 2648 540Q2648 372 2578.5 243.5Q2509 115 2385.5 42.5Q2262 -30 2100 -30ZM2100 224Q2231 224 2295.5 312.5Q2360 401 2360 540Q2360 684 2294.5 770.0Q2229 856 2100 856Q2011 856 1954.0 816.0Q1897 776 1869.5 705.0Q1842 634 1842 540Q1842 395 1907.5 309.5Q1973 224 2100 224ZM4150 0V638Q4150 745 4099.5 804.5Q4049 864 3960 864Q3903 864 3861.0 837.5Q3819 811 3795.5 763.5Q3772 716 3772 654L3658 730Q3658 841 3710.5 926.0Q3763 1011 3851.5 1058.5Q3940 1106 4048 1106Q4233 1106 4327.5 996.5Q4422 887 4422 710V0ZM2848 0V1080H3088V722H3122V0ZM3500 0V638Q3500 745 3449.5 804.5Q3399 864 3310 864Q3225 864 3173.5 805.5Q3122 747 3122 654L3008 734Q3008 840 3061.0 924.0Q3114 1008 3203.5 1057.0Q3293 1106 3404 1106Q3531 1106 3612.5 1052.0Q3694 998 3733.0 908.0Q3772 818 3772 710V0ZM5194 -30Q5033 -30 4925.0 45.0Q4817 120 4762.5 249.0Q4708 378 4708 540Q4708 702 4762.0 831.0Q4816 960 4921.0 1035.0Q5026 1110 5180 1110Q5335 1110 5450.0 1036.0Q5565 962 5628.5 833.5Q5692 705 5692 540Q5692 378 5629.5 249.0Q5567 120 5455.0 45.0Q5343 -30 5194 -30ZM4662 -480V1080H4902V340H4936V-480ZM5150 212Q5238 212 5294.0 256.0Q5350 300 5377.0 374.5Q5404 449 5404 540Q5404 630 5376.0 704.5Q5348 779 5289.5 823.5Q5231 868 5140 868Q5055 868 5002.5 827.0Q4950 786 4926.0 712.0Q4902 638 4902 540Q4902 442 4926.0 368.0Q4950 294 5004.5 253.0Q5059 212 5150 212ZM6194 -30Q6078 -30 5997.5 14.5Q5917 59 5875.5 133.5Q5834 208 5834 298Q5834 373 5857.0 435.0Q5880 497 5931.5 544.5Q5983 592 6070 624Q6130 646 6213.0 663.0Q6296 680 6401.0 695.5Q6506 711 6632 730L6534 676Q6534 772 6488.0 817.0Q6442 862 6334 862Q6274 862 6209.0 833.0Q6144 804 6118 730L5872 808Q5913 942 6026.0 1026.0Q6139 1110 6334 1110Q6477 1110 6588.0 1066.0Q6699 1022 6756 914Q6788 854 6794.0 794.0Q6800 734 6800 660V0H6562V222L6596 176Q6517 67 6425.5 18.5Q6334 -30 6194 -30ZM6252 184Q6327 184 6378.5 210.5Q6430 237 6460.5 271.0Q6491 305 6502 328Q6523 372 6526.5 430.5Q6530 489 6530 528L6610 508Q6489 488 6414.0 474.5Q6339 461 6293.0 450.0Q6247 439 6212 426Q6172 410 6147.5 391.5Q6123 373 6111.5 351.0Q6100 329 6100 302Q6100 265 6118.5 238.5Q6137 212 6171.0 198.0Q6205 184 6252 184ZM7778 0V510Q7778 547 7774.0 604.5Q7770 662 7749.0 720.0Q7728 778 7680.5 817.0Q7633 856 7546 856Q7511 856 7471.0 845.0Q7431 834 7396.0 802.5Q7361 771 7338.5 710.0Q7316 649 7316 548L7160 622Q7160 750 7212.0 862.0Q7264 974 7368.5 1043.0Q7473 1112 7632 1112Q7759 1112 7839.0 1069.0Q7919 1026 7963.5 960.0Q8008 894 8027.0 822.5Q8046 751 8050.0 692.0Q8054 633 8054 606V0ZM7040 0V1080H7282V722H7316V0ZM8434 -480 8642 92 8646 -76 8176 1080H8458L8774 262H8710L9024 1080H9296L8686 -480Z" fill="#FFFFFF"/>
    <path d="M10000 -30Q9784 -30 9627.5 64.0Q9471 158 9386.5 327.0Q9302 496 9302 720Q9302 944 9386.5 1113.0Q9471 1282 9627.5 1376.0Q9784 1470 10000 1470Q10248 1470 10416.5 1347.0Q10585 1224 10654 1014L10380 938Q10340 1069 10245.0 1141.5Q10150 1214 10000 1214Q9863 1214 9771.5 1153.0Q9680 1092 9634.0 981.0Q9588 870 9588 720Q9588 570 9634.0 459.0Q9680 348 9771.5 287.0Q9863 226 10000 226Q10150 226 10245.0 299.0Q10340 372 10380 502L10654 426Q10585 216 10416.5 93.0Q10248 -30 10000 -30ZM11592 0V510Q11592 547 11588.0 604.5Q11584 662 11563.0 720.0Q11542 778 11494.5 817.0Q11447 856 11360 856Q11325 856 11285.0 845.0Q11245 834 11210.0 802.5Q11175 771 11152.5 710.0Q11130 649 11130 548L10974 622Q10974 750 11026.0 862.0Q11078 974 11182.5 1043.0Q11287 1112 11446 1112Q11573 1112 11653.0 1069.0Q11733 1026 11777.5 960.0Q11822 894 11841.0 822.5Q11860 751 11864.0 692.0Q11868 633 11868 606V0ZM10854 0V1440H11096V700H11130V0ZM12410 -30Q12294 -30 12213.5 14.5Q12133 59 12091.5 133.5Q12050 208 12050 298Q12050 373 12073.0 435.0Q12096 497 12147.5 544.5Q12199 592 12286 624Q12346 646 12429.0 663.0Q12512 680 12617.0 695.5Q12722 711 12848 730L12750 676Q12750 772 12704.0 817.0Q12658 862 12550 862Q12490 862 12425.0 833.0Q12360 804 12334 730L12088 808Q12129 942 12242.0 1026.0Q12355 1110 12550 1110Q12693 1110 12804.0 1066.0Q12915 1022 12972 914Q13004 854 13010.0 794.0Q13016 734 13016 660V0H12778V222L12812 176Q12733 67 12641.5 18.5Q12550 -30 12410 -30ZM12468 184Q12543 184 12594.5 210.5Q12646 237 12676.5 271.0Q12707 305 12718 328Q12739 372 12742.5 430.5Q12746 489 12746 528L12826 508Q12705 488 12630.0 474.5Q12555 461 12509.0 450.0Q12463 439 12428 426Q12388 410 12363.5 391.5Q12339 373 12327.5 351.0Q12316 329 12316 302Q12316 265 12334.5 238.5Q12353 212 12387.0 198.0Q12421 184 12468 184ZM13906 0Q13794 -21 13686.5 -18.5Q13579 -16 13494.5 19.5Q13410 55 13366 134Q13326 208 13324.0 284.5Q13322 361 13322 458V1380H13594V474Q13594 411 13595.5 360.5Q13597 310 13616 280Q13652 223 13731.0 218.0Q13810 213 13906 226ZM13138 870V1080H13906V870Z" fill="#FFFFFF"/>
  </g>
</svg>
